<svg width="84" height="28" viewBox="0 0 84 28" fill="none" xmlns="http://www.w3.org/2000/svg">
<path d="M0 12C0 5.37258 5.37258 0 12 0H72C78.6274 0 84 5.37258 84 12V16C84 22.6274 78.6274 28 72 28H12C5.37258 28 0 22.6274 0 16V12Z" fill="#F20D0D"/>
<path d="M10.0833 19.8332H25.9166V21.4998H10.0833V19.8332ZM16.0666 15.0582L19.6916 16.0248L24.1166 17.2082C24.7833 17.3832 25.4666 16.9915 25.6499 16.3248C25.8249 15.6665 25.4333 14.9748 24.7666 14.7915L20.3416 13.6082L18.0416 6.08317L16.4333 5.6665V12.5665L12.2916 11.4582L11.5166 9.52484L10.3083 9.19984V13.5082L11.6416 13.8665L16.0666 15.0582Z" fill="#FAFAFA"/>
<path d="M39.6221 19L38.7197 16.3818H34.96L34.0508 19H32.4785L36.04 9.13574H37.6875L41.249 19H39.6221ZM36.7852 10.9268L35.3496 15.0967H38.3301L36.9014 10.9268H36.7852ZM42.8008 19V11.5557H44.2158V12.6973H44.3252C44.43 12.3281 44.6693 12.0251 45.043 11.7881C45.4212 11.5511 45.8519 11.4326 46.335 11.4326C46.613 11.4326 46.8317 11.4531 46.9912 11.4941V12.9434C46.8135 12.8841 46.54 12.8545 46.1709 12.8545C45.6104 12.8545 45.1523 13.0163 44.7969 13.3398C44.446 13.6634 44.2705 14.085 44.2705 14.6045V19H42.8008ZM48.5156 19V11.5557H49.9307V12.6973H50.04C50.1449 12.3281 50.3841 12.0251 50.7578 11.7881C51.1361 11.5511 51.5667 11.4326 52.0498 11.4326C52.3278 11.4326 52.5465 11.4531 52.7061 11.4941V12.9434C52.5283 12.8841 52.2549 12.8545 51.8857 12.8545C51.3252 12.8545 50.8672 13.0163 50.5117 13.3398C50.1608 13.6634 49.9854 14.085 49.9854 14.6045V19H48.5156ZM54.1484 19V11.5557H55.6113V19H54.1484ZM55.5566 9.99707C55.3789 10.1657 55.1533 10.25 54.8799 10.25C54.6064 10.25 54.3786 10.1657 54.1963 9.99707C54.0186 9.82389 53.9297 9.6097 53.9297 9.35449C53.9297 9.09928 54.0186 8.88509 54.1963 8.71191C54.3786 8.53874 54.6064 8.45215 54.8799 8.45215C55.1533 8.45215 55.3789 8.53874 55.5566 8.71191C55.7389 8.88509 55.8301 9.09928 55.8301 9.35449C55.8301 9.6097 55.7389 9.82389 55.5566 9.99707ZM64.0742 11.5557L61.3945 19H59.8154L57.1289 11.5557H58.7012L60.5537 17.4277H60.6699L62.5156 11.5557H64.0742ZM67.7383 17.8857C68.2897 17.8857 68.7477 17.7308 69.1123 17.4209C69.4814 17.111 69.666 16.7236 69.666 16.2588V15.6367L67.8477 15.7529C67.3372 15.7848 66.9613 15.8896 66.7197 16.0674C66.4782 16.2451 66.3574 16.498 66.3574 16.8262C66.3574 17.1543 66.485 17.4141 66.7402 17.6055C66.9954 17.7923 67.3281 17.8857 67.7383 17.8857ZM67.3623 19.123C66.6331 19.123 66.0361 18.9202 65.5713 18.5146C65.111 18.1045 64.8809 17.5645 64.8809 16.8945C64.8809 16.2292 65.1201 15.7074 65.5986 15.3291C66.0771 14.9463 66.7607 14.7275 67.6494 14.6729L69.666 14.5566V13.9141C69.666 13.5176 69.5361 13.2145 69.2764 13.0049C69.0166 12.7907 68.6383 12.6836 68.1416 12.6836C67.7314 12.6836 67.3896 12.7565 67.1162 12.9023C66.8473 13.0436 66.6719 13.2464 66.5898 13.5107H65.168C65.2409 12.8727 65.5531 12.3646 66.1045 11.9863C66.6605 11.6035 67.3623 11.4121 68.21 11.4121C69.1396 11.4121 69.8574 11.6331 70.3633 12.0752C70.8737 12.5127 71.1289 13.1257 71.1289 13.9141V19H69.7139V17.9541H69.5977C69.3743 18.3278 69.0667 18.6172 68.6748 18.8223C68.2874 19.0228 67.8499 19.123 67.3623 19.123ZM73.2891 19V8.65039H74.7588V19H73.2891Z" fill="#FAFAFA"/>
</svg>
