<svg width="109" height="28" viewBox="0 0 109 28" fill="none" xmlns="http://www.w3.org/2000/svg">
<path d="M0 12C0 5.37258 5.37258 0 12 0H97C103.627 0 109 5.37258 109 12V16C109 22.6274 103.627 28 97 28H12C5.37258 28 0 22.6274 0 16V12Z" fill="#F20D0D"/>
<path d="M10.0834 19.8334H25.9168V21.5001H10.0834V19.8334ZM26.3918 12.0334C26.2168 11.3668 25.5251 10.9668 24.8584 11.1501L20.4334 12.3334L14.6668 6.9751L13.0751 7.4001L16.5251 13.3751L12.3834 14.4834L10.7418 13.2001L9.53345 13.5251L11.0501 16.1584L11.6918 17.2668L13.0251 16.9168L17.4501 15.7251L21.0751 14.7584L25.5001 13.5834C26.1751 13.3834 26.5668 12.7001 26.3918 12.0334Z" fill="#FAFAFA"/>
<path d="M33.2373 9.13574H36.7988C38.2617 9.13574 39.401 9.56641 40.2168 10.4277C41.0326 11.2845 41.4404 12.4876 41.4404 14.0371C41.4404 15.6139 41.0348 16.8353 40.2236 17.7012C39.4124 18.5671 38.2708 19 36.7988 19H33.2373V9.13574ZM34.7686 10.5303V17.6055H36.6279C37.6624 17.6055 38.4622 17.2979 39.0273 16.6826C39.597 16.0628 39.8818 15.1878 39.8818 14.0576C39.8818 12.9456 39.5947 12.0798 39.0205 11.46C38.4508 10.8402 37.6533 10.5303 36.6279 10.5303H34.7686ZM47.6953 13.1895C47.3672 12.8385 46.932 12.6631 46.3896 12.6631C45.8473 12.6631 45.4007 12.8385 45.0498 13.1895C44.6989 13.5404 44.5029 14.0075 44.4619 14.5908H48.2217C48.2035 14.0029 48.028 13.5358 47.6953 13.1895ZM48.2148 16.9902H49.6299C49.4613 17.6602 49.0921 18.1865 48.5225 18.5693C47.9574 18.9521 47.251 19.1436 46.4033 19.1436C45.3369 19.1436 44.4961 18.8018 43.8809 18.1182C43.2702 17.43 42.9648 16.4912 42.9648 15.3018C42.9648 14.1123 43.2747 13.1667 43.8945 12.4648C44.5143 11.763 45.3483 11.4121 46.3965 11.4121C47.431 11.4121 48.2422 11.7448 48.8301 12.4102C49.4225 13.0755 49.7188 13.9938 49.7188 15.165V15.6777H44.4619V15.7598C44.4847 16.416 44.6738 16.9355 45.0293 17.3184C45.3848 17.7012 45.8564 17.8926 46.4443 17.8926C47.3421 17.8926 47.9323 17.5918 48.2148 16.9902ZM55.3447 11.4326C56.2926 11.4326 57.0446 11.779 57.6006 12.4717C58.1566 13.1598 58.4346 14.0941 58.4346 15.2744C58.4346 16.4548 58.1566 17.3913 57.6006 18.084C57.0492 18.7767 56.3018 19.123 55.3584 19.123C54.8298 19.123 54.3649 19.0137 53.9639 18.7949C53.5628 18.5716 53.2643 18.264 53.0684 17.8721H52.9521V21.4746H51.4824V11.5557H52.8975V12.7861H53.0068C53.2301 12.3623 53.5492 12.0319 53.9639 11.7949C54.3786 11.5534 54.8389 11.4326 55.3447 11.4326ZM54.9277 17.8037C55.5521 17.8037 56.0397 17.5804 56.3906 17.1338C56.7461 16.6826 56.9238 16.0628 56.9238 15.2744C56.9238 14.486 56.7461 13.8685 56.3906 13.4219C56.0397 12.9753 55.5544 12.752 54.9346 12.752C54.3148 12.752 53.8249 12.9798 53.4648 13.4355C53.1048 13.8867 52.9248 14.502 52.9248 15.2812C52.9248 16.056 53.1048 16.6712 53.4648 17.127C53.8249 17.5781 54.3125 17.8037 54.9277 17.8037ZM62.6387 17.8857C63.1901 17.8857 63.6481 17.7308 64.0127 17.4209C64.3818 17.111 64.5664 16.7236 64.5664 16.2588V15.6367L62.748 15.7529C62.2376 15.7848 61.8617 15.8896 61.6201 16.0674C61.3786 16.2451 61.2578 16.498 61.2578 16.8262C61.2578 17.1543 61.3854 17.4141 61.6406 17.6055C61.8958 17.7923 62.2285 17.8857 62.6387 17.8857ZM62.2627 19.123C61.5335 19.123 60.9365 18.9202 60.4717 18.5146C60.0114 18.1045 59.7812 17.5645 59.7812 16.8945C59.7812 16.2292 60.0205 15.7074 60.499 15.3291C60.9775 14.9463 61.6611 14.7275 62.5498 14.6729L64.5664 14.5566V13.9141C64.5664 13.5176 64.4365 13.2145 64.1768 13.0049C63.917 12.7907 63.5387 12.6836 63.042 12.6836C62.6318 12.6836 62.29 12.7565 62.0166 12.9023C61.7477 13.0436 61.5723 13.2464 61.4902 13.5107H60.0684C60.1413 12.8727 60.4535 12.3646 61.0049 11.9863C61.5609 11.6035 62.2627 11.4121 63.1104 11.4121C64.04 11.4121 64.7578 11.6331 65.2637 12.0752C65.7741 12.5127 66.0293 13.1257 66.0293 13.9141V19H64.6143V17.9541H64.498C64.2747 18.3278 63.9671 18.6172 63.5752 18.8223C63.1878 19.0228 62.7503 19.123 62.2627 19.123ZM68.1211 19V11.5557H69.5361V12.6973H69.6455C69.7503 12.3281 69.9896 12.0251 70.3633 11.7881C70.7415 11.5511 71.1722 11.4326 71.6553 11.4326C71.9333 11.4326 72.152 11.4531 72.3115 11.4941V12.9434C72.1338 12.8841 71.8604 12.8545 71.4912 12.8545C70.9307 12.8545 70.4727 13.0163 70.1172 13.3398C69.7663 13.6634 69.5908 14.085 69.5908 14.6045V19H68.1211ZM74.6289 9.70312H76.0986V11.5898H77.7119V12.8271H76.0986V16.6553C76.0986 17.0426 76.1829 17.3275 76.3516 17.5098C76.5202 17.6875 76.7868 17.7764 77.1514 17.7764C77.2972 17.7764 77.484 17.765 77.7119 17.7422V18.9658C77.4202 19.016 77.1536 19.041 76.9121 19.041C76.0964 19.041 75.5107 18.8861 75.1553 18.5762C74.8044 18.2663 74.6289 17.7513 74.6289 17.0312V12.8271H73.4463V11.5898H74.6289V9.70312ZM85.7168 11.5557V19H84.3018V17.8174H84.1855C83.8073 18.7015 83.0576 19.1436 81.9365 19.1436C81.1162 19.1436 80.4827 18.9043 80.0361 18.4258C79.5941 17.9473 79.373 17.2682 79.373 16.3887V11.5557H80.8428V16.0059C80.8428 16.612 80.9681 17.0609 81.2188 17.3525C81.474 17.6396 81.8704 17.7832 82.4082 17.7832C82.9961 17.7832 83.4495 17.6191 83.7686 17.291C84.0876 16.9583 84.2471 16.498 84.2471 15.9102V11.5557H85.7168ZM87.8496 19V11.5557H89.2646V12.6973H89.374C89.4788 12.3281 89.7181 12.0251 90.0918 11.7881C90.4701 11.5511 90.9007 11.4326 91.3838 11.4326C91.6618 11.4326 91.8805 11.4531 92.04 11.4941V12.9434C91.8623 12.8841 91.5889 12.8545 91.2197 12.8545C90.6592 12.8545 90.2012 13.0163 89.8457 13.3398C89.4948 13.6634 89.3193 14.085 89.3193 14.6045V19H87.8496ZM97.625 13.1895C97.2969 12.8385 96.8617 12.6631 96.3193 12.6631C95.777 12.6631 95.3304 12.8385 94.9795 13.1895C94.6286 13.5404 94.4326 14.0075 94.3916 14.5908H98.1514C98.1331 14.0029 97.9577 13.5358 97.625 13.1895ZM98.1445 16.9902H99.5596C99.391 17.6602 99.0218 18.1865 98.4521 18.5693C97.887 18.9521 97.1807 19.1436 96.333 19.1436C95.2666 19.1436 94.4258 18.8018 93.8105 18.1182C93.1999 17.43 92.8945 16.4912 92.8945 15.3018C92.8945 14.1123 93.2044 13.1667 93.8242 12.4648C94.444 11.763 95.278 11.4121 96.3262 11.4121C97.3607 11.4121 98.1719 11.7448 98.7598 12.4102C99.3522 13.0755 99.6484 13.9938 99.6484 15.165V15.6777H94.3916V15.7598C94.4144 16.416 94.6035 16.9355 94.959 17.3184C95.3145 17.7012 95.7861 17.8926 96.374 17.8926C97.2718 17.8926 97.862 17.5918 98.1445 16.9902Z" fill="#FAFAFA"/>
</svg>
