<svg width="12" height="80" viewBox="0 0 12 80" fill="none" xmlns="http://www.w3.org/2000/svg">
<path d="M6 74.3333C8.94552 74.3333 11.3333 71.9455 11.3333 69C11.3333 66.0545 8.94552 63.6667 6 63.6667C3.05448 63.6667 0.666667 66.0545 0.666667 69C0.666666 71.9455 3.05448 74.3333 6 74.3333ZM6 16.3333C8.94552 16.3333 11.3333 13.9455 11.3333 11C11.3333 8.05449 8.94552 5.66667 6 5.66667C3.05448 5.66667 0.666669 8.05449 0.666669 11C0.666669 13.9455 3.05448 16.3333 6 16.3333ZM7 69L7 66.9286L5 66.9286L5 69L7 69ZM7 62.7857L7 58.6429L5 58.6429L5 62.7857L7 62.7857ZM7 54.5L7 50.3571L5 50.3571L5 54.5L7 54.5ZM7 46.2143L7 42.0714L5 42.0714L5 46.2143L7 46.2143ZM7 37.9286L7 33.7857L5 33.7857L5 37.9286L7 37.9286ZM7 29.6429L7 25.5L5 25.5L5 29.6429L7 29.6429ZM7 21.3571L7 17.2143L5 17.2143L5 21.3571L7 21.3571ZM7 13.0714L7 11L5 11L5 13.0714L7 13.0714Z" fill="#111111" fill-opacity="0.14"/>
</svg>
