<svg width="132" height="24" viewBox="0 0 132 24" fill="none" xmlns="http://www.w3.org/2000/svg">
<path d="M0.666667 12C0.666667 14.9455 3.05448 17.3333 6 17.3333C8.94552 17.3333 11.3333 14.9455 11.3333 12C11.3333 9.05448 8.94552 6.66667 6 6.66667C3.05448 6.66667 0.666667 9.05448 0.666667 12ZM120.667 12C120.667 14.9455 123.054 17.3333 126 17.3333C128.946 17.3333 131.333 14.9455 131.333 12C131.333 9.05448 128.946 6.66667 126 6.66667C123.054 6.66667 120.667 9.05448 120.667 12ZM6 13H8V11H6V13ZM12 13H16V11H12V13ZM20 13H24V11H20V13ZM28 13H32V11H28V13ZM36 13H40V11H36V13ZM44 13H48V11H44V13ZM52 13H56V11H52V13ZM60 13H64V11H60V13ZM68 13H72V11H68V13ZM76 13H80V11H76V13ZM84 13H88V11H84V13ZM92 13H96V11H92V13ZM100 13H104V11H100V13ZM108 13H112V11H108V13ZM116 13H120V11H116V13ZM124 13H126V11H124V13Z" fill="#111111" fill-opacity="0.14"/>
<path d="M0.666667 12C0.666667 14.9455 3.05448 17.3333 6 17.3333C8.94552 17.3333 11.3333 14.9455 11.3333 12C11.3333 9.05448 8.94552 6.66667 6 6.66667C3.05448 6.66667 0.666667 9.05448 0.666667 12ZM6 13H7.8913V11H6V13ZM11.6739 13H15.4565V11H11.6739V13ZM19.2391 13H23.0217V11H19.2391V13ZM26.8043 13H30.587V11H26.8043V13ZM34.3696 13H38.1522V11H34.3696V13ZM41.9348 13H45.7174V11H41.9348V13ZM49.5 13H53.2826V11H49.5V13ZM57.0652 13H60.8478V11H57.0652V13ZM64.6304 13H66.5217V11H64.6304V13Z" fill="#F20D0D"/>
<g clip-path="url(#clip0_23139_1331)">
<path d="M72.6919 12.0001C72.6919 12.8345 71.9909 13.5063 71.1276 13.4992H65.3871L60.1705 21.4966L58.0824 21.5037L60.7018 13.5063L54.9466 13.5063L53.3897 15.5074L51.8181 15.5003L52.8658 12.0072L51.8181 8.49996L53.3971 8.48582L54.9687 10.5152H60.6797L58.0824 2.49662L60.1705 2.50369L65.3871 10.5011L71.1276 10.5011C71.9688 10.4869 72.7066 11.194 72.6919 12.0001Z" fill="#F20D0D"/>
</g>
<defs>
<clipPath id="clip0_23139_1331">
<rect width="25.0435" height="24" fill="white" transform="translate(47.739)"/>
</clipPath>
</defs>
</svg>
