<svg width="25" height="24" viewBox="0 0 25 24" fill="none" xmlns="http://www.w3.org/2000/svg">
<path d="M17.53 6C18.61 6 19.5 6.88 19.5 8V19C19.5 20.13 18.61 21 17.53 21C17.53 21.58 17.06 22 16.5 22C16 22 15.5 21.58 15.5 21H9.5C9.5 21.58 9 22 8.5 22C7.94 22 7.47 21.58 7.47 21C6.39 21 5.5 20.13 5.5 19V8C5.5 6.88 6.39 6 7.47 6H9.5V3C9.5 2.42 9.96 2 10.5 2H14.5C15.04 2 15.5 2.42 15.5 3V6H17.53ZM14 6V3.5H11V6H14ZM8.5 9V18H10V9H8.5ZM15 9V18H16.5V9H15ZM11.75 9V18H13.25V9H11.75Z" fill="#111111" fill-opacity="0.4"/>
</svg>
