<svg width="24" height="25" viewBox="0 0 24 25" fill="none" xmlns="http://www.w3.org/2000/svg">
<path d="M21 19.5V20.5H3V19.5L5 17.5V11.5C5 8.4 7.03 5.67 10 4.79C10 4.69 10 4.6 10 4.5C10 3.96957 10.2107 3.46086 10.5858 3.08579C10.9609 2.71071 11.4696 2.5 12 2.5C12.5304 2.5 13.0391 2.71071 13.4142 3.08579C13.7893 3.46086 14 3.96957 14 4.5C14 4.6 14 4.69 14 4.79C16.97 5.67 19 8.4 19 11.5V17.5L21 19.5ZM14 21.5C14 22.0304 13.7893 22.5391 13.4142 22.9142C13.0391 23.2893 12.5304 23.5 12 23.5C11.4696 23.5 10.9609 23.2893 10.5858 22.9142C10.2107 22.5391 10 22.0304 10 21.5M19.75 3.69L18.33 5.11C20.04 6.8 21 9.1 21 11.5H23C23 8.57 21.84 5.75 19.75 3.69ZM1 11.5H3C3 9.1 3.96 6.8 5.67 5.11L4.25 3.69C2.16 5.75 1 8.57 1 11.5Z" fill="#F20D0D"/>
</svg>
